<?xml version="1.0" encoding="UTF-8"?>
<!-- Generator: Adobe Illustrator 15.0.2, SVG Export Plug-In . SVG Version: 6.00 Build 0)  -->
<!DOCTYPE svg PUBLIC "-//W3C//DTD SVG 1.1//EN" "http://www.w3.org/Graphics/SVG/1.1/DTD/svg11.dtd">
<svg xmlns="http://www.w3.org/2000/svg" xmlns:xlink="http://www.w3.org/1999/xlink" version="1.1" id="Layer_1" x="0px" y="0px" width="512px" height="511.983px" viewBox="0.328 0 512 511.983" enable-background="new 0.328 0 512 511.983" xml:space="preserve">
<path d="M497.862,65.369c-0.39-0.382-0.786-0.751-1.192-1.104l-60.938-53.062C428.118,3.974,417.832,0,406.651,0  c-12.785,0-25.182,5.065-34,13.904c-0.625,0.634-1.227,1.308-1.789,2.007l-59.848,75.546c-15.904,17.104-15.532,43.968,1.106,60.624  c1.107,1.104,2.322,2.09,3.596,2.962l30.153,20.056c-2.793,10.883-19.088,41.515-73.97,96.389  c-54.436,54.44-85.383,70.971-96.42,73.917l-20.016-30.09c-0.857-1.302-1.85-2.506-2.953-3.601  c-8.253-8.239-19.228-12.798-30.898-12.798c-11.132,0-21.636,4.14-29.746,11.68L16.33,370.432c-0.717,0.573-1.394,1.17-2.039,1.823  c-17.559,17.579-18.683,46.213-2.66,63.059l53.042,60.937c0.364,0.413,0.729,0.826,1.109,1.193  c9.646,9.655,24.426,14.54,43.929,14.54c0.005,0,0.005,0,0.005,0c62.179,0,172.78-47.669,263.888-138.788  c52.164-52.176,94.433-115.314,119.019-177.802C504.106,166.215,527.602,95.115,497.862,65.369z M340.393,339.992  c-86.233,86.217-186.801,125.016-230.672,125.016c-6.622,0-9.922-0.895-11.143-1.348l-50.726-58.276l72.779-57.646l19.42,29.207  c0.401,0.607,0.84,1.181,1.299,1.766c7.396,9.151,18.41,14.186,31.01,14.186h0.006c29.574,0,74.251-29.688,132.754-88.194  c60.025-60.025,89.668-105.527,88.114-135.242c-0.614-11.519-5.619-21.653-14.116-28.527c-0.573-0.465-1.158-0.892-1.767-1.302  l-29.195-19.429l57.646-72.773l58.346,50.791C473.339,118.709,444.218,236.159,340.393,339.992z" fill="#000000"/>
</svg>
