<?xml version="1.0" encoding="UTF-8" standalone="no"?>
<!-- Created with Inkscape (http://www.inkscape.org/) -->

<svg
   xmlns:dc="http://purl.org/dc/elements/1.1/"
   xmlns:cc="http://creativecommons.org/ns#"
   xmlns:rdf="http://www.w3.org/1999/02/22-rdf-syntax-ns#"
   xmlns:svg="http://www.w3.org/2000/svg"
   xmlns="http://www.w3.org/2000/svg"
   xmlns:xlink="http://www.w3.org/1999/xlink"
   xmlns:sodipodi="http://sodipodi.sourceforge.net/DTD/sodipodi-0.dtd"
   xmlns:inkscape="http://www.inkscape.org/namespaces/inkscape"
   width="1239"
   height="450.00003"
   id="svg2"
   version="1.1"
   inkscape:version="0.48.3.1 r9886"
   sodipodi:docname="reflowster_logo_text.svg"
   inkscape:export-filename="/Users/julian/Dropbox/nRF_200a/reflow_media/reflowster_icon_text.png"
   inkscape:export-xdpi="73.831009"
   inkscape:export-ydpi="73.831009">
  <defs
     id="defs4">
    <linearGradient
       inkscape:collect="always"
       id="linearGradient3971">
      <stop
         style="stop-color:#000000;stop-opacity:1;"
         offset="0"
         id="stop3973" />
      <stop
         style="stop-color:#000000;stop-opacity:0;"
         offset="1"
         id="stop3975" />
    </linearGradient>
    <linearGradient
       inkscape:collect="always"
       xlink:href="#linearGradient3971"
       id="linearGradient3977"
       x1="396"
       y1="879.10046"
       x2="1026.4219"
       y2="879.10046"
       gradientUnits="userSpaceOnUse" />
  </defs>
  <sodipodi:namedview
     id="base"
     pagecolor="#ffffff"
     bordercolor="#666666"
     borderopacity="1.0"
     inkscape:pageopacity="0.0"
     inkscape:pageshadow="2"
     inkscape:zoom="1.3"
     inkscape:cx="639.80845"
     inkscape:cy="211.25692"
     inkscape:document-units="px"
     inkscape:current-layer="layer1"
     showgrid="true"
     inkscape:snap-global="true"
     inkscape:snap-bbox="true"
     inkscape:bbox-nodes="true"
     inkscape:window-width="1920"
     inkscape:window-height="995"
     inkscape:window-x="0"
     inkscape:window-y="27"
     inkscape:window-maximized="1"
     showguides="true"
     inkscape:guide-bbox="true"
     fit-margin-left="10"
     fit-margin-right="10"
     fit-margin-top="10"
     fit-margin-bottom="10">
    <inkscape:grid
       type="xygrid"
       id="grid3061"
       empspacing="5"
       visible="true"
       enabled="true"
       snapvisiblegridlinesonly="true"
       originx="13px"
       originy="-23.98718px" />
    <sodipodi:guide
       orientation="0,1"
       position="-44.5,405.50002"
       id="guide4284" />
    <sodipodi:guide
       orientation="1,0"
       position="50.5,300.50002"
       id="guide4286" />
    <sodipodi:guide
       orientation="1,0"
       position="275.5,280.50002"
       id="guide4288" />
    <sodipodi:guide
       orientation="0,1"
       position="130.5,75.50002"
       id="guide4290" />
    <sodipodi:guide
       orientation="0.70710678,0.70710678"
       position="100.5,235.50002"
       id="guide3057" />
    <sodipodi:guide
       orientation="1,0"
       position="150.5,55.50002"
       id="guide3873" />
    <sodipodi:guide
       orientation="0,1"
       position="120.5,370.50002"
       id="guide3878" />
    <sodipodi:guide
       orientation="1,0"
       position="80.5,330.50002"
       id="guide3880" />
    <sodipodi:guide
       orientation="1,0"
       position="260.5,60.50002"
       id="guide3882" />
    <sodipodi:guide
       orientation="1,0"
       position="295.5,315.50002"
       id="guide3919" />
    <sodipodi:guide
       orientation="0,1"
       position="-14.5,255.50002"
       id="guide3921" />
    <sodipodi:guide
       orientation="0,1"
       position="280.5,330.50002"
       id="guide3923" />
  </sodipodi:namedview>
  <metadata
     id="metadata7">
    <rdf:RDF>
      <cc:Work
         rdf:about="">
        <dc:format>image/svg+xml</dc:format>
        <dc:type
           rdf:resource="http://purl.org/dc/dcmitype/StillImage" />
        <dc:title></dc:title>
      </cc:Work>
    </rdf:RDF>
  </metadata>
  <g
     inkscape:label="Layer 1"
     inkscape:groupmode="layer"
     id="layer1"
     transform="translate(-39.5,-577.86218)">
    <text
       xml:space="preserve"
       style="font-size:462.58535767px;font-style:normal;font-weight:normal;line-height:125%;letter-spacing:0px;word-spacing:0px;fill:#ffffff;fill-opacity:1;stroke:none;display:none;font-family:Sans"
       x="44.825649"
       y="972.36218"
       id="text3990"
       sodipodi:linespacing="125%"><tspan
         sodipodi:role="line"
         id="tspan3992"
         x="44.825649"
         y="972.36218">R</tspan></text>
    <g
       id="g3308">
      <path
         sodipodi:nodetypes="ccccccccc"
         inkscape:connector-curvature="0"
         id="path3059"
         d="m 120,972.36218 0,-315 155,0 40,40 0,60 -40,40 c -50,0 -80,0 -130,0 l -25,-25 185,185"
         style="fill:none;stroke:#ffffff;stroke-width:70;stroke-linecap:butt;stroke-linejoin:miter;stroke-miterlimit:4;stroke-opacity:1;stroke-dasharray:none" />
      <path
         transform="matrix(2,0,0,2,-120,-182.63782)"
         d="m 130,420 c 0,5.52285 -4.47715,10 -10,10 -5.52285,0 -10,-4.47715 -10,-10 0,-5.52285 4.47715,-10 10,-10 5.52285,0 10,4.47715 10,10 z"
         sodipodi:ry="10"
         sodipodi:rx="10"
         sodipodi:cy="420"
         sodipodi:cx="120"
         id="path3865"
         style="fill:#000000;fill-opacity:0.33478262;fill-rule:nonzero;stroke:#ffffff;stroke-width:30;stroke-miterlimit:4;stroke-opacity:1;stroke-dasharray:none"
         sodipodi:type="arc" />
      <path
         sodipodi:type="arc"
         style="fill:#000000;fill-opacity:0.33478262;fill-rule:nonzero;stroke:#ffffff;stroke-width:30;stroke-miterlimit:4;stroke-opacity:1;stroke-dasharray:none"
         id="path3888"
         sodipodi:cx="120"
         sodipodi:cy="420"
         sodipodi:rx="10"
         sodipodi:ry="10"
         d="m 130,420 c 0,5.52285 -4.47715,10 -10,10 -5.52285,0 -10,-4.47715 -10,-10 0,-5.52285 4.47715,-10 10,-10 5.52285,0 10,4.47715 10,10 z"
         transform="matrix(1.6000001,0,0,1.6,-72.00001,100.36221)" />
      <path
         sodipodi:type="arc"
         style="fill:#000000;fill-opacity:0.33478262;fill-rule:nonzero;stroke:#ffffff;stroke-width:30;stroke-miterlimit:4;stroke-opacity:1;stroke-dasharray:none"
         id="path3901"
         sodipodi:cx="120"
         sodipodi:cy="420"
         sodipodi:rx="10"
         sodipodi:ry="10"
         d="m 130,420 c 0,5.52285 -4.47715,10 -10,10 -5.52285,0 -10,-4.47715 -10,-10 0,-5.52285 4.47715,-10 10,-10 5.52285,0 10,4.47715 10,10 z"
         transform="matrix(2,0,0,2,-120,112.36218)" />
      <path
         transform="matrix(2,0,0,2,60,112.36218)"
         d="m 130,420 c 0,5.52285 -4.47715,10 -10,10 -5.52285,0 -10,-4.47715 -10,-10 0,-5.52285 4.47715,-10 10,-10 5.52285,0 10,4.47715 10,10 z"
         sodipodi:ry="10"
         sodipodi:rx="10"
         sodipodi:cy="420"
         sodipodi:cx="120"
         id="path3907"
         style="fill:#000000;fill-opacity:0.33478262;fill-rule:nonzero;stroke:#ffffff;stroke-width:30;stroke-miterlimit:4;stroke-opacity:1;stroke-dasharray:none"
         sodipodi:type="arc" />
      <path
         transform="matrix(1.6000001,0,0,1.6,122.99999,25.362179)"
         d="m 130,420 c 0,5.52285 -4.47715,10 -10,10 -5.52285,0 -10,-4.47715 -10,-10 0,-5.52285 4.47715,-10 10,-10 5.52285,0 10,4.47715 10,10 z"
         sodipodi:ry="10"
         sodipodi:rx="10"
         sodipodi:cy="420"
         sodipodi:cx="120"
         id="path3913"
         style="fill:#000000;fill-opacity:0.33478262;fill-rule:nonzero;stroke:#ffffff;stroke-width:30;stroke-miterlimit:4;stroke-opacity:1;stroke-dasharray:none"
         sodipodi:type="arc" />
    </g>
    <g
       id="g3300">
      <path
         style="fill:none;stroke:#000000;stroke-width:30;stroke-linecap:butt;stroke-linejoin:miter;stroke-miterlimit:4;stroke-opacity:1;stroke-dasharray:none"
         d="m 120,952.36218 0,-295 155,0 40,40 0,60 -40,40 c -50,0 -80,0 -130,0 l -25,-25 185,185"
         id="path3996"
         inkscape:connector-curvature="0"
         sodipodi:nodetypes="ccccccccc" />
      <path
         sodipodi:type="arc"
         style="fill:#000000;fill-opacity:1;stroke:none"
         id="path3867"
         sodipodi:cx="110"
         sodipodi:cy="375"
         sodipodi:rx="25"
         sodipodi:ry="25"
         d="m 135,375 c 0,13.80712 -11.19288,25 -25,25 -13.807119,0 -25,-11.19288 -25,-25 0,-13.80712 11.192881,-25 25,-25 13.80712,0 25,11.19288 25,25 z"
         transform="matrix(1.2,0,0,1.2,-12,207.36218)" />
      <path
         transform="matrix(0.8,0,0,0.8,32,472.36218)"
         d="m 135,375 c 0,13.80712 -11.19288,25 -25,25 -13.807119,0 -25,-11.19288 -25,-25 0,-13.80712 11.192881,-25 25,-25 13.80712,0 25,11.19288 25,25 z"
         sodipodi:ry="25"
         sodipodi:rx="25"
         sodipodi:cy="375"
         sodipodi:cx="110"
         id="path3890"
         style="fill:#000000;fill-opacity:1;stroke:none"
         sodipodi:type="arc" />
      <path
         transform="matrix(1.2,0,0,1.2,-12,502.36218)"
         d="m 135,375 c 0,13.80712 -11.19288,25 -25,25 -13.807119,0 -25,-11.19288 -25,-25 0,-13.80712 11.192881,-25 25,-25 13.80712,0 25,11.19288 25,25 z"
         sodipodi:ry="25"
         sodipodi:rx="25"
         sodipodi:cy="375"
         sodipodi:cx="110"
         id="path3903"
         style="fill:#000000;fill-opacity:1;stroke:none"
         sodipodi:type="arc" />
      <path
         sodipodi:type="arc"
         style="fill:#000000;fill-opacity:1;stroke:none"
         id="path3909"
         sodipodi:cx="110"
         sodipodi:cy="375"
         sodipodi:rx="25"
         sodipodi:ry="25"
         d="m 135,375 c 0,13.80712 -11.19288,25 -25,25 -13.807119,0 -25,-11.19288 -25,-25 0,-13.80712 11.192881,-25 25,-25 13.80712,0 25,11.19288 25,25 z"
         transform="matrix(1.2,0,0,1.2,168,502.36218)" />
      <path
         sodipodi:type="arc"
         style="fill:#000000;fill-opacity:1;stroke:none"
         id="path3915"
         sodipodi:cx="110"
         sodipodi:cy="375"
         sodipodi:rx="25"
         sodipodi:ry="25"
         d="m 135,375 c 0,13.80712 -11.19288,25 -25,25 -13.807119,0 -25,-11.19288 -25,-25 0,-13.80712 11.192881,-25 25,-25 13.80712,0 25,11.19288 25,25 z"
         transform="matrix(0.8,0,0,0.8,227,397.36215)" />
    </g>
    <g
       id="g3291">
      <path
         transform="translate(78,555.36218)"
         d="M 55,102.5 C 55,109.40356 49.403559,115 42.5,115 35.596441,115 30,109.40356 30,102.5 30,95.596441 35.596441,90 42.5,90 49.403559,90 55,95.596441 55,102.5 z"
         sodipodi:ry="12.5"
         sodipodi:rx="12.5"
         sodipodi:cy="102.5"
         sodipodi:cx="42.5"
         id="path3886"
         style="fill:#ffffff;fill-opacity:1;stroke:none"
         sodipodi:type="arc" />
      <path
         sodipodi:type="arc"
         style="fill:#ffffff;fill-opacity:1;stroke:none"
         id="path3892"
         sodipodi:cx="42.5"
         sodipodi:cy="102.5"
         sodipodi:rx="12.5"
         sodipodi:ry="12.5"
         d="M 55,102.5 C 55,109.40356 49.403559,115 42.5,115 35.596441,115 30,109.40356 30,102.5 30,95.596441 35.596441,90 42.5,90 49.403559,90 55,95.596441 55,102.5 z"
         transform="matrix(0.6,0,0,0.6,94.5,710.86218)" />
      <path
         sodipodi:type="arc"
         style="fill:#ffffff;fill-opacity:1;stroke:none"
         id="path3905"
         sodipodi:cx="42.5"
         sodipodi:cy="102.5"
         sodipodi:rx="12.5"
         sodipodi:ry="12.5"
         d="M 55,102.5 C 55,109.40356 49.403559,115 42.5,115 35.596441,115 30,109.40356 30,102.5 30,95.596441 35.596441,90 42.5,90 49.403559,90 55,95.596441 55,102.5 z"
         transform="translate(78,850.36218)" />
      <path
         transform="translate(258,850.36218)"
         d="M 55,102.5 C 55,109.40356 49.403559,115 42.5,115 35.596441,115 30,109.40356 30,102.5 30,95.596441 35.596441,90 42.5,90 49.403559,90 55,95.596441 55,102.5 z"
         sodipodi:ry="12.5"
         sodipodi:rx="12.5"
         sodipodi:cy="102.5"
         sodipodi:cx="42.5"
         id="path3911"
         style="fill:#ffffff;fill-opacity:1;stroke:none"
         sodipodi:type="arc" />
      <path
         transform="matrix(0.6,0,0,0.6,289.5,635.86215)"
         d="M 55,102.5 C 55,109.40356 49.403559,115 42.5,115 35.596441,115 30,109.40356 30,102.5 30,95.596441 35.596441,90 42.5,90 49.403559,90 55,95.596441 55,102.5 z"
         sodipodi:ry="12.5"
         sodipodi:rx="12.5"
         sodipodi:cy="102.5"
         sodipodi:cx="42.5"
         id="path3917"
         style="fill:#ffffff;fill-opacity:1;stroke:none"
         sodipodi:type="arc" />
    </g>
    <text
       xml:space="preserve"
       style="font-size:200px;font-style:normal;font-weight:normal;line-height:125%;letter-spacing:0px;word-spacing:0px;fill:#000000;fill-opacity:1;stroke:#ffffff;stroke-width:8.10000038;stroke-miterlimit:0;stroke-opacity:1;stroke-dasharray:none;font-family:Sans"
       x="366.05469"
       y="992.32312"
       id="text3178"
       sodipodi:linespacing="125%"><tspan
         sodipodi:role="line"
         id="tspan3180"
         x="366.05469"
         y="992.32312"
         style="font-size:200px;font-style:normal;font-variant:normal;font-weight:bold;font-stretch:normal;fill:#000000;fill-opacity:1;stroke:#ffffff;stroke-width:8.10000038;stroke-miterlimit:0;stroke-opacity:1;stroke-dasharray:none;font-family:Arial;-inkscape-font-specification:Arial Bold">eflowster</tspan></text>
    <path
       sodipodi:type="arc"
       style="fill:#000000;fill-opacity:1;stroke:#ffffff;stroke-width:44.29999924;stroke-miterlimit:0;stroke-opacity:1;stroke-dasharray:none"
       id="path3999-1"
       sodipodi:cx="513"
       sodipodi:cy="78.987183"
       sodipodi:rx="85"
       sodipodi:ry="85"
       d="m 598,78.987183 c 0,46.944207 -38.0558,84.999997 -85,84.999997 -46.9442,0 -85,-38.05579 -85,-84.999997 0,-46.944204 38.0558,-85.0000004 85,-85.0000004 46.9442,0 85,38.0557964 85,85.0000004 z"
       transform="matrix(0.35386637,0,0,0.35386637,834.8145,723.21338)" />
    <path
       sodipodi:type="arc"
       style="fill:#000000;fill-opacity:1;stroke:#ffffff;stroke-width:44.29999924;stroke-miterlimit:0;stroke-opacity:1;stroke-dasharray:none"
       id="path3999-7"
       sodipodi:cx="513"
       sodipodi:cy="78.987183"
       sodipodi:rx="85"
       sodipodi:ry="85"
       d="m 598,78.987183 c 0,46.944207 -38.0558,84.999997 -85,84.999997 -46.9442,0 -85,-38.05579 -85,-84.999997 0,-46.944204 38.0558,-85.0000004 85,-85.0000004 46.9442,0 85,38.0557964 85,85.0000004 z"
       transform="matrix(0.35386637,0,0,0.35386637,923.04519,722.41128)" />
    <path
       sodipodi:type="arc"
       style="fill:#000000;fill-opacity:1;stroke:#ffffff;stroke-width:44.29999924;stroke-miterlimit:0;stroke-opacity:1;stroke-dasharray:none"
       id="path3999-7-4"
       sodipodi:cx="513"
       sodipodi:cy="78.987183"
       sodipodi:rx="85"
       sodipodi:ry="85"
       d="m 598,78.987183 c 0,46.944207 -38.0558,84.999997 -85,84.999997 -46.9442,0 -85,-38.05579 -85,-84.999997 0,-46.944204 38.0558,-85.0000004 85,-85.0000004 46.9442,0 85,38.0557964 85,85.0000004 z"
       transform="matrix(0.35386637,0,0,0.35386637,1012.078,722.41128)" />
    <path
       transform="matrix(0.35386637,0,0,0.35386637,834.8145,639.21338)"
       d="m 598,78.987183 c 0,46.944207 -38.0558,84.999997 -85,84.999997 -46.9442,0 -85,-38.05579 -85,-84.999997 0,-46.944204 38.0558,-85.0000004 85,-85.0000004 46.9442,0 85,38.0557964 85,85.0000004 z"
       sodipodi:ry="85"
       sodipodi:rx="85"
       sodipodi:cy="78.987183"
       sodipodi:cx="513"
       id="path4068"
       style="fill:#000000;fill-opacity:1;stroke:#ffffff;stroke-width:44.29999924;stroke-miterlimit:0;stroke-opacity:1;stroke-dasharray:none"
       sodipodi:type="arc" />
    <path
       transform="matrix(0.35386637,0,0,0.35386637,923.04519,638.41128)"
       d="m 598,78.987183 c 0,46.944207 -38.0558,84.999997 -85,84.999997 -46.9442,0 -85,-38.05579 -85,-84.999997 0,-46.944204 38.0558,-85.0000004 85,-85.0000004 46.9442,0 85,38.0557964 85,85.0000004 z"
       sodipodi:ry="85"
       sodipodi:rx="85"
       sodipodi:cy="78.987183"
       sodipodi:cx="513"
       id="path4070"
       style="fill:#000000;fill-opacity:1;stroke:#ffffff;stroke-width:44.29999924;stroke-miterlimit:0;stroke-opacity:1;stroke-dasharray:none"
       sodipodi:type="arc" />
    <path
       transform="matrix(0.35386637,0,0,0.35386637,1012.078,638.41128)"
       d="m 598,78.987183 c 0,46.944207 -38.0558,84.999997 -85,84.999997 -46.9442,0 -85,-38.05579 -85,-84.999997 0,-46.944204 38.0558,-85.0000004 85,-85.0000004 46.9442,0 85,38.0557964 85,85.0000004 z"
       sodipodi:ry="85"
       sodipodi:rx="85"
       sodipodi:cy="78.987183"
       sodipodi:cx="513"
       id="path4072"
       style="fill:#000000;fill-opacity:1;stroke:#ffffff;stroke-width:44.29999924;stroke-miterlimit:0;stroke-opacity:1;stroke-dasharray:none"
       sodipodi:type="arc" />
  </g>
</svg>
