<?xml version="1.0" encoding="UTF-8" standalone="no"?>
<!-- Created with Inkscape (http://www.inkscape.org/) -->

<svg
   xmlns:dc="http://purl.org/dc/elements/1.1/"
   xmlns:cc="http://creativecommons.org/ns#"
   xmlns:rdf="http://www.w3.org/1999/02/22-rdf-syntax-ns#"
   xmlns:svg="http://www.w3.org/2000/svg"
   xmlns="http://www.w3.org/2000/svg"
   xmlns:sodipodi="http://sodipodi.sourceforge.net/DTD/sodipodi-0.dtd"
   xmlns:inkscape="http://www.inkscape.org/namespaces/inkscape"
   width="500"
   height="500"
   id="svg2"
   version="1.1"
   inkscape:version="0.48.2 r9819"
   sodipodi:docname="reflowster_logo.svg"
   inkscape:export-filename="/Users/julian/Dropbox/nRF_200a/reflow_media/reflowster_logo.png"
   inkscape:export-xdpi="90"
   inkscape:export-ydpi="90">
  <defs
     id="defs4" />
  <sodipodi:namedview
     id="base"
     pagecolor="#ffffff"
     bordercolor="#666666"
     borderopacity="1.0"
     inkscape:pageopacity="0.0"
     inkscape:pageshadow="2"
     inkscape:zoom="0.947"
     inkscape:cx="184.80627"
     inkscape:cy="217.1564"
     inkscape:document-units="px"
     inkscape:current-layer="layer1"
     showgrid="true"
     inkscape:snap-global="true"
     inkscape:snap-bbox="true"
     inkscape:bbox-nodes="true"
     inkscape:window-width="1436"
     inkscape:window-height="856"
     inkscape:window-x="0"
     inkscape:window-y="0"
     inkscape:window-maximized="1"
     showguides="true"
     inkscape:guide-bbox="true">
    <inkscape:grid
       type="xygrid"
       id="grid3061"
       empspacing="5"
       visible="true"
       enabled="true"
       snapvisiblegridlinesonly="true" />
    <sodipodi:guide
       orientation="0,1"
       position="-5,430"
       id="guide4284" />
    <sodipodi:guide
       orientation="1,0"
       position="90,325"
       id="guide4286" />
    <sodipodi:guide
       orientation="1,0"
       position="315,305"
       id="guide4288" />
    <sodipodi:guide
       orientation="0,1"
       position="170,100"
       id="guide4290" />
    <sodipodi:guide
       orientation="0.70710678,0.70710678"
       position="140,260"
       id="guide3057" />
    <sodipodi:guide
       orientation="1,0"
       position="190,80"
       id="guide3873" />
    <sodipodi:guide
       orientation="0,1"
       position="160,395"
       id="guide3878" />
    <sodipodi:guide
       orientation="1,0"
       position="120,355"
       id="guide3880" />
    <sodipodi:guide
       orientation="1,0"
       position="300,85"
       id="guide3882" />
    <sodipodi:guide
       orientation="1,0"
       position="335,340"
       id="guide3919" />
    <sodipodi:guide
       orientation="0,1"
       position="25,280"
       id="guide3921" />
    <sodipodi:guide
       orientation="0,1"
       position="320,355"
       id="guide3923" />
  </sodipodi:namedview>
  <metadata
     id="metadata7">
    <rdf:RDF>
      <cc:Work
         rdf:about="">
        <dc:format>image/svg+xml</dc:format>
        <dc:type
           rdf:resource="http://purl.org/dc/dcmitype/StillImage" />
        <dc:title></dc:title>
      </cc:Work>
    </rdf:RDF>
  </metadata>
  <g
     inkscape:label="Layer 1"
     inkscape:groupmode="layer"
     id="layer1"
     transform="translate(0,-552.36218)">
    <path
       style="fill:#000000;fill-opacity:1;stroke:#000000;stroke-width:1px;stroke-linecap:butt;stroke-linejoin:miter;stroke-opacity:1"
       d="m 90,588.36218 244,0 40,40 0,350 -40,40.00002 -244,0 -40,-40.00002 0,-350 40,-40"
       id="path4282"
       inkscape:connector-curvature="0"
       sodipodi:nodetypes="ccccccccc" />
    <text
       xml:space="preserve"
       style="font-size:462.58535767px;font-style:normal;font-weight:normal;line-height:125%;letter-spacing:0px;word-spacing:0px;fill:#ffffff;fill-opacity:1;stroke:none;display:none;font-family:Sans"
       x="44.825649"
       y="972.36218"
       id="text3990"
       sodipodi:linespacing="125%"><tspan
         sodipodi:role="line"
         id="tspan3992"
         x="44.825649"
         y="972.36218">R</tspan></text>
    <path
       style="fill:none;stroke:#ffffff;stroke-width:70;stroke-linecap:butt;stroke-linejoin:miter;stroke-miterlimit:4;stroke-opacity:1;stroke-dasharray:none"
       d="m 120,972.36218 0,-315 155,0 40,40 0,60 -40,40 c -50,0 -80,0 -130,0 l -25,-25 185,185"
       id="path3059"
       inkscape:connector-curvature="0"
       sodipodi:nodetypes="ccccccccc" />
    <path
       sodipodi:type="arc"
       style="fill:#000000;fill-opacity:0.33478262;fill-rule:nonzero;stroke:#ffffff;stroke-width:30;stroke-miterlimit:4;stroke-opacity:1;stroke-dasharray:none"
       id="path3865"
       sodipodi:cx="120"
       sodipodi:cy="420"
       sodipodi:rx="10"
       sodipodi:ry="10"
       d="m 130,420 a 10,10 0 1 1 -20,0 10,10 0 1 1 20,0 z"
       transform="matrix(2,0,0,2,-120,-182.63782)" />
    <path
       transform="matrix(1.6000001,0,0,1.6,-72.00001,100.36221)"
       d="m 130,420 a 10,10 0 1 1 -20,0 10,10 0 1 1 20,0 z"
       sodipodi:ry="10"
       sodipodi:rx="10"
       sodipodi:cy="420"
       sodipodi:cx="120"
       id="path3888"
       style="fill:#000000;fill-opacity:0.33478262;fill-rule:nonzero;stroke:#ffffff;stroke-width:30;stroke-miterlimit:4;stroke-opacity:1;stroke-dasharray:none"
       sodipodi:type="arc" />
    <path
       transform="matrix(2,0,0,2,-120,112.36218)"
       d="m 130,420 a 10,10 0 1 1 -20,0 10,10 0 1 1 20,0 z"
       sodipodi:ry="10"
       sodipodi:rx="10"
       sodipodi:cy="420"
       sodipodi:cx="120"
       id="path3901"
       style="fill:#000000;fill-opacity:0.33478262;fill-rule:nonzero;stroke:#ffffff;stroke-width:30;stroke-miterlimit:4;stroke-opacity:1;stroke-dasharray:none"
       sodipodi:type="arc" />
    <path
       sodipodi:type="arc"
       style="fill:#000000;fill-opacity:0.33478262;fill-rule:nonzero;stroke:#ffffff;stroke-width:30;stroke-miterlimit:4;stroke-opacity:1;stroke-dasharray:none"
       id="path3907"
       sodipodi:cx="120"
       sodipodi:cy="420"
       sodipodi:rx="10"
       sodipodi:ry="10"
       d="m 130,420 a 10,10 0 1 1 -20,0 10,10 0 1 1 20,0 z"
       transform="matrix(2,0,0,2,60,112.36218)" />
    <path
       sodipodi:type="arc"
       style="fill:#000000;fill-opacity:0.33478262;fill-rule:nonzero;stroke:#ffffff;stroke-width:30;stroke-miterlimit:4;stroke-opacity:1;stroke-dasharray:none"
       id="path3913"
       sodipodi:cx="120"
       sodipodi:cy="420"
       sodipodi:rx="10"
       sodipodi:ry="10"
       d="m 130,420 a 10,10 0 1 1 -20,0 10,10 0 1 1 20,0 z"
       transform="matrix(1.6000001,0,0,1.6,122.99999,25.362179)" />
    <path
       sodipodi:nodetypes="ccccccccc"
       inkscape:connector-curvature="0"
       id="path3996"
       d="m 120,952.36218 0,-295 155,0 40,40 0,60 -40,40 c -50,0 -80,0 -130,0 l -25,-25 185,185"
       style="fill:none;stroke:#000000;stroke-width:30;stroke-linecap:butt;stroke-linejoin:miter;stroke-miterlimit:4;stroke-opacity:1;stroke-dasharray:none" />
    <path
       transform="matrix(1.2,0,0,1.2,-12,207.36218)"
       d="m 135,375 a 25,25 0 1 1 -50,0 25,25 0 1 1 50,0 z"
       sodipodi:ry="25"
       sodipodi:rx="25"
       sodipodi:cy="375"
       sodipodi:cx="110"
       id="path3867"
       style="fill:#000000;fill-opacity:1;stroke:none"
       sodipodi:type="arc" />
    <path
       sodipodi:type="arc"
       style="fill:#ffffff;fill-opacity:1;stroke:none"
       id="path3886"
       sodipodi:cx="42.5"
       sodipodi:cy="102.5"
       sodipodi:rx="12.5"
       sodipodi:ry="12.5"
       d="m 55,102.5 a 12.5,12.5 0 1 1 -25,0 12.5,12.5 0 1 1 25,0 z"
       transform="translate(78,555.36218)" />
    <path
       sodipodi:type="arc"
       style="fill:#000000;fill-opacity:1;stroke:none"
       id="path3890"
       sodipodi:cx="110"
       sodipodi:cy="375"
       sodipodi:rx="25"
       sodipodi:ry="25"
       d="m 135,375 a 25,25 0 1 1 -50,0 25,25 0 1 1 50,0 z"
       transform="matrix(0.8,0,0,0.8,32,472.36218)" />
    <path
       transform="matrix(0.6,0,0,0.6,94.5,710.86218)"
       d="m 55,102.5 a 12.5,12.5 0 1 1 -25,0 12.5,12.5 0 1 1 25,0 z"
       sodipodi:ry="12.5"
       sodipodi:rx="12.5"
       sodipodi:cy="102.5"
       sodipodi:cx="42.5"
       id="path3892"
       style="fill:#ffffff;fill-opacity:1;stroke:none"
       sodipodi:type="arc" />
    <path
       sodipodi:type="arc"
       style="fill:#000000;fill-opacity:1;stroke:none"
       id="path3903"
       sodipodi:cx="110"
       sodipodi:cy="375"
       sodipodi:rx="25"
       sodipodi:ry="25"
       d="m 135,375 a 25,25 0 1 1 -50,0 25,25 0 1 1 50,0 z"
       transform="matrix(1.2,0,0,1.2,-12,502.36218)" />
    <path
       transform="translate(78,850.36218)"
       d="m 55,102.5 a 12.5,12.5 0 1 1 -25,0 12.5,12.5 0 1 1 25,0 z"
       sodipodi:ry="12.5"
       sodipodi:rx="12.5"
       sodipodi:cy="102.5"
       sodipodi:cx="42.5"
       id="path3905"
       style="fill:#ffffff;fill-opacity:1;stroke:none"
       sodipodi:type="arc" />
    <path
       transform="matrix(1.2,0,0,1.2,168,502.36218)"
       d="m 135,375 a 25,25 0 1 1 -50,0 25,25 0 1 1 50,0 z"
       sodipodi:ry="25"
       sodipodi:rx="25"
       sodipodi:cy="375"
       sodipodi:cx="110"
       id="path3909"
       style="fill:#000000;fill-opacity:1;stroke:none"
       sodipodi:type="arc" />
    <path
       sodipodi:type="arc"
       style="fill:#ffffff;fill-opacity:1;stroke:none"
       id="path3911"
       sodipodi:cx="42.5"
       sodipodi:cy="102.5"
       sodipodi:rx="12.5"
       sodipodi:ry="12.5"
       d="m 55,102.5 a 12.5,12.5 0 1 1 -25,0 12.5,12.5 0 1 1 25,0 z"
       transform="translate(258,850.36218)" />
    <path
       transform="matrix(0.8,0,0,0.8,227,397.36215)"
       d="m 135,375 a 25,25 0 1 1 -50,0 25,25 0 1 1 50,0 z"
       sodipodi:ry="25"
       sodipodi:rx="25"
       sodipodi:cy="375"
       sodipodi:cx="110"
       id="path3915"
       style="fill:#000000;fill-opacity:1;stroke:none"
       sodipodi:type="arc" />
    <path
       sodipodi:type="arc"
       style="fill:#ffffff;fill-opacity:1;stroke:none"
       id="path3917"
       sodipodi:cx="42.5"
       sodipodi:cy="102.5"
       sodipodi:rx="12.5"
       sodipodi:ry="12.5"
       d="m 55,102.5 a 12.5,12.5 0 1 1 -25,0 12.5,12.5 0 1 1 25,0 z"
       transform="matrix(0.6,0,0,0.6,289.5,635.86215)" />
  </g>
</svg>
